<?xml version="1.0" encoding="utf-8"?>
<!-- Generator: Adobe Illustrator 16.0.0, SVG Export Plug-In . SVG Version: 6.00 Build 0)  -->
<!DOCTYPE svg PUBLIC "-//W3C//DTD SVG 1.1//EN" "http://www.w3.org/Graphics/SVG/1.1/DTD/svg11.dtd">
<svg version="1.1" id="Layer_1" xmlns="http://www.w3.org/2000/svg" xmlns:xlink="http://www.w3.org/1999/xlink" x="0px" y="0px"
	 width="600px" height="600px" viewBox="0 0 600 600" enable-background="new 0 0 600 600" xml:space="preserve">
<g>
	<path d="M471.066,249.475c-5.121,7.428-11.521,18.021-19.023,31.969c-12.171,22.595-20.109,41.217-21.61,54.379
		c-0.739,5.465,0.502,8.192,3.489,8.192c3.222,0,10.182-3.968,18.121-10.681c7.198-5.95,11.176-9.673,12.168-11.423
		c0.741,0.749,0.985,1.495,0.985,2.497c0,0.987-0.736,2.475-2.219,4.464c-6.218,7.197-13.911,14.157-23.105,21.102
		c-10.919,8.2-19.359,12.424-25.577,12.917c-6.205,0.493-9.436-2.735-9.436-10.182c0-14.403,13.411-43.206,35.508-81.698
		c-9.687,7.95-26.567,25.325-45.435,47.672c-11.923,14.157-23.837,28.322-36.015,42.475c-1.241,1.479-3.481,2.227-6.205,2.227
		c-5.21,0-7.697-1.979-7.697-5.951c0-1.247,0.253-2.496,0.993-3.976c12.909-28.315,32.778-58.858,44.701-76.982
		c-37.997,39.727-71.274,72.512-96.601,86.909c-10.434,6.219-15.891,8.447-24.338,8.447c-5.71,0-11.676-0.995-18.12-2.978
		c-1.487-0.499-2.241-1.24-2.241-2.486c0-0.995,0.754-1.741,2.241-1.989c1.48-0.247,3.477-0.739,5.952-1.741
		c22.356-8.688,40.977-23.591,60.599-46.676c18.121-21.109,33.271-44.7,40.224-66.799c1.495-4.221,1.988-7.951,1.988-11.176
		c0-8.2-4.717-12.413-13.91-12.413c-5.958,0-13.163,1.734-21.85,5.21c-13.157,5.21-30.791,14.897-43.447,25.326
		c-12.675,10.436-24.344,22.597-28.075,31.792c-1.979,4.712-4.223,10.18-4.223,13.653c0,6.706,2.489,10.184,7.206,9.435
		c-4.463,4.972-13.651,11.424-22.343,11.424c-7.206,0-10.683-3.23-10.683-9.435c0-2.735,0.994-6.207,2.982-9.935
		c6.939-13.66,18.867-27.812,36.001-41.967c16.631-13.903,35.767-25.823,57.124-36.007c5.95-2.729,13.409-5.458,22.59-7.943
		c10.927-2.979,20.114-4.471,27.313-4.471c10.436,0,15.894,3.227,16.4,9.441c0.993,11.42-9.942,32.769-32.532,64.31
		c-22.857,31.536-42.965,52.894-60.097,63.567c7.938-2.482,20.107-10.428,36-24.086c12.67-10.928,24.098-21.107,33.278-31.537
		c12.663-14.4,29.31-34.512,51.652-59.345c4.724-5.22,9.927-7.453,14.658-7.453c3.717,0,5.712,1.739,5.712,4.969
		c0,1.741-0.749,3.729-1.995,5.96c-1.24,2.233-10.428,16.383-27.076,41.967c-10.42,16.139-18.606,30.048-24.329,41.462
		c12.168-13.65,24.09-27.313,36.506-40.963c15.9-17.387,29.805-31.043,41.966-40.978c2.333-2,4.66-3.522,6.993-4.628
		C440.331,168.74,375.635,121.5,299.877,121.5c-98.589,0-178.506,79.922-178.506,178.503c0,11.913,1.191,23.531,3.411,34.792
		c1.996-3.223,4.358-6.805,7.193-10.851c7.204-10.422,14.904-20.35,22.35-30.042c11.421-14.898,27.807-35.508,49.171-61.581
		c-1.249-1.242-1.75-2.481-1.75-3.726c0-5.715,7.453-11.173,22.097-16.637c1.255-0.496,2.989-0.747,4.731-0.747
		c4.223,0,6.198,0.747,6.198,2.486c0,0.25-0.24,0.743-0.488,0.99c-16.885,18.13-35.02,40.974-54.388,68.54
		c68.292-54.386,108.771-82.694,121.686-85.178c3.723-0.745,5.704,0.495,5.704,3.479c0,3.229-1.728,7.198-4.972,12.17
		c-3.221,4.966-6.69,8.939-10.419,11.668c-0.493,0.501-0.754,0.501-1.001,0.25c-0.24-1.241-0.74-2.236-1.982-2.979
		c-1.232-0.747-2.481-0.747-3.976-0.25c-25.319,10.43-61.572,35.263-108.768,74.747c-1.981,1.737-1.981,3.477-0.248,5.464
		c14.658,16.143,33.278,36.506,52.654,54.624c14.15,13.412,28.788,25.333,42.713,33.779c1.974,1.242,5.464,1.735,9.918,1.735
		c7.214,0,12.925-1.989,17.388-5.464c0.246,0,0.5,0.245,0.748,0.492c0,0.748-0.248,1.496-0.987,2.243
		c-10.428,13.409-21.117,20.354-31.784,20.354c-2.495,0-4.971-0.246-7.453-0.986c-8.686-2.969-25.086-18.876-41.718-37.501
		c-22.104-24.832-45.201-54.383-52.4-64.313c-9.194,12.913-13.897,22.1-13.897,27.317c0,2.488,0.987,3.977,2.969,4.716
		c1.24,0.248,0.987,0.995-0.495,1.735c-9.856,5.534-17.978,9.096-24.458,10.774C151.414,425.261,219.424,478.5,299.877,478.5
		c98.575,0,178.477-79.92,178.477-178.497C478.354,282.45,475.78,265.499,471.066,249.475z M299.877,138.415
		c-89.106,0-161.599,72.487-161.599,161.588c0,2.162-1.75,3.91-3.914,3.91c-2.167,0-3.92-1.748-3.92-3.91
		c0-93.423,75.998-169.417,169.432-169.417c64.434,0,122.461,35.784,151.446,93.403c0.966,1.927,0.198,4.282-1.75,5.256
		c-1.93,0.969-4.278,0.196-5.259-1.734C416.684,172.551,361.329,138.415,299.877,138.415z M462.031,349.185
		c-10.3,34.068-31.733,64.676-60.309,86.2c-29.535,22.267-64.767,34.041-101.845,34.041c-66.523,0-127.179-39.194-154.521-99.851
		c-0.895-1.975-0.014-4.287,1.954-5.176c1.966-0.896,4.293-0.014,5.175,1.961c26.094,57.849,83.943,95.225,147.392,95.225
		c70.604,0,134.221-47.146,154.661-114.671c0.628-2.072,2.82-3.236,4.888-2.609C461.483,344.927,462.659,347.112,462.031,349.185z"
		/>
</g>
<g>
	<path d="M488.669,133.497c0,6.802-5.341,12.142-12.288,12.142c-6.876,0-12.363-5.339-12.363-12.142
		c0-6.658,5.487-11.997,12.363-11.997C483.328,121.5,488.669,126.839,488.669,133.497z M467.092,133.497
		c0,5.339,3.949,9.581,9.362,9.581c5.266,0,9.143-4.241,9.143-9.507c0-5.34-3.877-9.656-9.216-9.656
		C471.041,123.914,467.092,128.23,467.092,133.497z M474.478,139.786h-2.778v-11.995c1.097-0.219,2.632-0.366,4.609-0.366
		c2.266,0,3.29,0.366,4.168,0.877c0.658,0.512,1.17,1.463,1.17,2.634c0,1.316-1.023,2.34-2.486,2.779v0.145
		c1.172,0.44,1.828,1.318,2.194,2.928c0.365,1.828,0.584,2.561,0.877,2.998h-2.998c-0.366-0.437-0.586-1.535-0.953-2.925
		c-0.218-1.318-0.949-1.903-2.486-1.903h-1.316V139.786z M474.551,132.984h1.318c1.535,0,2.778-0.512,2.778-1.755
		c0-1.098-0.804-1.829-2.56-1.829c-0.732,0-1.244,0.073-1.537,0.146V132.984z"/>
</g>
</svg>
